<svg clip-rule="evenodd" fill-rule="evenodd" stroke-linejoin="round" stroke-miterlimit="2" viewBox="0 0 512 512" xmlns="http://www.w3.org/2000/svg"><path d="m0 0v1200h1200v-1200zm294.287 235.913c47.53.535 94.35 33.325 96.387 90.088 1.016 50.475-42.971 88.921-97.632 90.088h-1.318c-47.057-.543-93.012-34.156-95.142-90.088.671-49.913 42.627-88.904 97.705-90.088zm509.912 238.477c52.255.324 101.572 15.826 142.09 57.13 42.106 46.96 55.621 111.71 57.131 177.538v299.412h-172.561v-279.051c-.384-52.302-18.3-115.877-87.524-117.993-40.571.432-69.18 24.007-88.77 63.428-5.348 12.688-6.118 27.273-6.372 41.821v291.795h-172.485c.66-145.875 1.567-291.741 1.245-437.62 0-41.438-.399-69.34-1.245-83.716h172.485v73.535c14.641-20.823 30.879-40.571 52.66-56.47 29.545-21.085 65.036-29.168 103.346-29.809zm-597.436 12.744h172.485v521.336h-172.485z" fill-rule="nonzero" transform="scale(.426667)"/></svg>