<svg viewBox="0 0 300.6 256" xmlns="http://www.w3.org/2000/svg"><path d="m0 57.1h300.3v101.2h-300.3zm0 113.6h300.3v86h-300.3zm0-170.7h114.3v45.2h-114.3z" fill="#fff"/><path d="m263.6 140.1h25.8l-27-35.3 25.8-27.8h-23.6l-21.1 22.9v-22.9h-21.3v62.3h21.3v-15.2l4.4-5.3zm-75.8 1.1c6.1 0 11.6-1.1 16.4-3.3 4.8-2.1 8.8-5.2 11.9-9.3l-13.4-12c-3.9 4.9-8.5 7.4-13.8 7.4-4.4 0-8-1.4-10.7-4.3s-4-6.6-4-11.5c0-4.8 1.3-8.6 4-11.5s6.3-4.3 10.7-4.3c5.2 0 9.9 2.5 13.8 7.4l13.4-12c-3.1-4.1-7-7.2-11.9-9.3-4.8-2.1-10.2-3.3-16.4-3.3-6.6 0-12.7 1.4-18 4.2s-9.5 6.7-12.5 11.7-4.6 10.7-4.6 17c0 6.4 1.6 12 4.6 17s7.2 8.9 12.5 11.7c5.3 3 11.4 4.4 18 4.4m-79.4-27.3 6.1-15.8 6.1 15.8zm21.8 25.4h22l-27.2-62.3h-20.7l-27.2 62.3h21.7l4.1-10.7h23.2zm-78.5-62.3v22.1h-19.7v-22.1h-21.3v62.3h21.3v-23h19.7v23.8h21.3v-63.1zm36.8-62.4v5l9 3.1-9 3v5l15.1-5.5v-5.2zm-3.1 0-15.1 5.5v5.2l15.1 5.5v-5l-9-3.1 9-3.1zm-31.3 21.2h5.9l9.7-27.6h-5.9zm-15.8-21.2v5l9 3.1-9 3v5l15.1-5.5v-5.2zm-15.6 9.9h-2.9l.4-3.8h2.9zm9.3-3.8v-4.4h-3.6l.5-3.8h-4.7l-.5 3.8h-2.9l.5-3.8h-4.7l-.5 3.8h-4.2v4.4h3.5l-.4 3.8h-4.3v4.4h3.6l-.4 3.8h4.7l.5-3.8h2.9l-.5 3.8h4.7l.5-3.8h4.1v-4.4h-3.4l.4-3.8zm235.2 218.6c4.8 0 8.9-.8 12.3-2.2s5.9-3.4 7.6-5.8 2.6-5.2 2.6-8.2c0-3.5-.9-6.3-2.8-8.3s-4.1-3.5-6.6-4.4-5.6-1.7-9.3-2.4c-2.8-.6-4.9-1.1-6.2-1.6s-1.9-1.2-1.9-2.2c0-2 2.1-3 6.3-3s8.7 1.2 13.4 3.6l4.9-11.8c-2.4-1.4-5.3-2.4-8.5-3.1s-6.5-1.1-9.8-1.1c-4.8 0-8.9.7-12.3 2.1s-5.9 3.4-7.6 5.8c-1.7 2.5-2.6 5.3-2.6 8.3 0 3.5.9 6.3 2.8 8.3 1.8 2.1 4 3.5 6.5 4.4s5.6 1.8 9.3 2.5c2.9.6 5 1.1 6.2 1.6s1.9 1.3 1.9 2.3c0 .9-.5 1.5-1.4 1.9s-2.6.6-4.8.6c-2.6 0-5.3-.4-8.2-1.2-2.8-.8-5.4-1.9-7.7-3.2l-5.3 11.9c2.4 1.5 5.5 2.7 9.4 3.6 3.9 1.2 7.8 1.6 11.8 1.6m-45.3 0c4.8 0 8.9-.8 12.3-2.2s5.9-3.4 7.6-5.8 2.6-5.2 2.6-8.2c0-3.5-.9-6.3-2.8-8.3s-4.1-3.5-6.6-4.4-5.6-1.7-9.3-2.4c-2.8-.6-4.9-1.1-6.2-1.6s-1.9-1.2-1.9-2.2c0-2 2.1-3 6.3-3s8.7 1.2 13.4 3.6l4.9-11.8c-2.4-1.4-5.3-2.4-8.5-3.1s-6.5-1.1-9.8-1.1c-4.8 0-8.9.7-12.3 2.1s-5.9 3.4-7.6 5.8c-1.7 2.5-2.6 5.3-2.6 8.3 0 3.5.9 6.3 2.8 8.3 1.8 2.1 4 3.5 6.5 4.4s5.6 1.8 9.3 2.5c2.9.6 5 1.1 6.2 1.6s1.9 1.3 1.9 2.3c0 .9-.5 1.5-1.4 1.9s-2.6.6-4.8.6c-2.6 0-5.3-.4-8.2-1.2-2.8-.8-5.4-1.9-7.7-3.2l-5.3 11.9c2.4 1.5 5.5 2.7 9.4 3.6 3.8 1.2 7.8 1.6 11.8 1.6m-51.2 0c5.2 0 9.9-1.1 14-3.3 4.1-2.1 7.4-5.1 9.7-9 2.3-3.8 3.5-8.2 3.5-13s-1.2-9.2-3.5-13-5.6-6.8-9.7-9-8.8-3.3-14-3.3-9.9 1.1-14 3.3c-4.1 2.1-7.4 5.1-9.7 9-2.3 3.8-3.5 8.2-3.5 13s1.2 9.2 3.5 13 5.6 6.8 9.7 9c4.1 2.3 8.8 3.3 14 3.3"/><path d="m170.7 226.1c-2 0-3.8-.5-5.5-1.5-1.6-1-3-2.4-3.9-4.2s-1.4-4-1.4-6.4.5-4.6 1.4-6.4 2.3-3.2 3.9-4.2 3.5-1.5 5.5-1.5 3.8.5 5.5 1.5c1.6 1 3 2.4 3.9 4.2s1.4 4 1.4 6.4-.5 4.6-1.4 6.4-2.3 3.2-3.9 4.2c-1.7 1.1-3.5 1.5-5.5 1.5" fill="#fffdfd"/><path d="m130.9 213.2c2.2-1.1 3.9-2.6 5-4.3 1.1-1.8 1.7-3.8 1.7-6.1 0-3.8-1.6-6.9-5-9.2-3.3-2.3-8.2-3.5-14.6-3.5h-25.8v48.3h27.2c6.7 0 11.7-1.2 15.2-3.5s5.3-5.6 5.3-9.9c0-2.8-.8-5.3-2.3-7.4-1.6-1.8-3.8-3.4-6.7-4.4"/><path d="m117.3 226.6h-9.4v-7.6h9.7c3.5 0 5.4 1.2 5.4 3.7 0 2.6-1.8 3.8-5.4 3.8m-2.4-25c3.4 0 5.1 1.2 5.1 3.5s-1.7 3.5-5.1 3.5h-7.3v-6.9h7.3z" fill="#fffdfd"/><path d="m51.5 237.9h16.8l-20.8-47.7h-15.8l-20.9 47.7h16.6l3.2-8.2h17.8z"/><path d="m34.8 218.4 4.7-12.1 4.7 12.1z" fill="#fffdfd"/></svg>